<?xml version="1.0" encoding="UTF-8"?>
<svg
  xmlns="http://www.w3.org/2000/svg"
  xmlns:xlink="http://www.w3.org/1999/xlink"
  width="1920"
  height="1080"
  viewBox="0 0 1920 1080"
>
  <rect
    x="0"
    y="0"
    width="1920"
    height="1080"
    fill="#030f1c"
  />
  <path
    d="M 0 60 1920 60"
    stroke="#333333"
    stroke-width="3"
  />
  <path
    d="M 0 180 1920 180"
    stroke="#333333"
    stroke-width="3"
  />
  <path
    d="M 0 300 1920 300"
    stroke="#333333"
    stroke-width="3"
  />
  <path
    d="M 0 420 1920 420"
    stroke="#333333"
    stroke-width="3"
  />
  <path
    d="M 0 540 1920 540"
    stroke="#333333"
    stroke-width="3"
  />
  <path
    d="M 0 660 1920 660"
    stroke="#333333"
    stroke-width="3"
  />
  <path
    d="M 0 780 1920 780"
    stroke="#333333"
    stroke-width="3"
  />
  <path
    d="M 0 900 1920 900"
    stroke="#333333"
    stroke-width="3"
  />
  <path
    d="M 0 1020 1920 1020"
    stroke="#333333"
    stroke-width="3"
  />
  <path
    d="M 60 0 60 1080"
    stroke="#333333"
    stroke-width="3"
  />
  <path
    d="M 60 0 60 1080"
    stroke="#333333"
    stroke-width="3"
  />
  <path
    d="M 180 0 180 1080"
    stroke="#333333"
    stroke-width="3"
  />
  <path
    d="M 300 0 300 1080"
    stroke="#333333"
    stroke-width="3"
  />
  <path
    d="M 420 0 420 1080"
    stroke="#333333"
    stroke-width="3"
  />
  <path
    d="M 540 0 540 1080"
    stroke="#333333"
    stroke-width="3"
  />
  <path
    d="M 660 0 660 1080"
    stroke="#333333"
    stroke-width="3"
  />
  <path
    d="M 780 0 780 1080"
    stroke="#333333"
    stroke-width="3"
  />
  <path
    d="M 900 0 900 1080"
    stroke="#333333"
    stroke-width="3"
  />
  <path
    d="M 1020 0 1020 1080"
    stroke="#333333"
    stroke-width="3"
  />
  <path
    d="M 1140 0 1140 1080"
    stroke="#333333"
    stroke-width="3"
  />
  <path
    d="M 1260 0 1260 1080"
    stroke="#333333"
    stroke-width="3"
  />
  <path
    d="M 1380 0 1380 1080"
    stroke="#333333"
    stroke-width="3"
  />
  <path
    d="M 1500 0 1500 1080"
    stroke="#333333"
    stroke-width="3"
  />
  <path
    d="M 1620 0 1620 1080"
    stroke="#333333"
    stroke-width="3"
  />
  <path
    d="M 1740 0 1740 1080"
    stroke="#333333"
    stroke-width="3"
  />
  <path
    d="M 1860 0 1860 1080"
    stroke="#333333"
    stroke-width="3"
  />
  <path
    d="
      M 60 40
      L 1860 40
      A 20 20 90 0 1 1880 60
      L 1880 1020
      A 20 20 90 0 1 1860 1040
      L 60 1040
      A 20 20 90 0 1 40 1020
      L 40 60
      A 20 20 90 0 1 60 40
      Z
    "
    stroke-width="5"
    stroke="#4da2ff"
    fill="none"
  />
  <circle cx="75" cy="75" r="15" fill="#4da2ff"/>
  <circle cx="75" cy="1005" r="15" fill="#4da2ff"/>
  <circle cx="1845" cy="75" r="15" fill="#4da2ff"/>
  <circle cx="1845" cy="1005" r="15" fill="#4da2ff"/>
  <g transform="translate(1300,350)">
    <path fill-rule="evenodd" clip-rule="evenodd" d="M240.057 159.914C255.698 179.553 265.052 204.39 265.052 231.407C265.052 258.424 255.414 284.019 239.362 303.768L237.971 305.475L237.608 303.31C237.292 301.477 236.929 299.613 236.502 297.749C228.46 262.421 202.265 232.134 159.148 207.597C130.029 191.071 113.361 171.195 108.985 148.586C106.157 133.972 108.258 119.294 112.318 106.717C116.379 94.1569 122.414 83.6187 127.549 77.2831L144.328 56.7754C147.267 53.1731 152.781 53.1731 155.719 56.7754L240.073 159.914H240.057ZM266.584 139.422L154.155 1.96703C152.007 -0.655678 147.993 -0.655678 145.845 1.96703L33.4316 139.422L33.0683 139.881C12.3868 165.555 0 198.181 0 233.698C0 316.408 67.1635 383.461 150 383.461C232.837 383.461 300 316.408 300 233.698C300 198.181 287.613 165.555 266.932 139.896L266.568 139.438L266.584 139.422ZM60.3381 159.472L70.3866 147.164L70.6868 149.439C70.9237 151.24 71.2239 153.041 71.5715 154.858C78.0809 189.001 101.322 217.456 140.173 239.496C173.952 258.724 193.622 280.828 199.278 305.064C201.648 315.176 202.059 325.129 201.032 333.835L200.969 334.372L200.479 334.609C185.233 342.05 168.09 346.237 149.984 346.237C86.4546 346.237 34.9484 294.826 34.9484 231.391C34.9484 204.153 44.4439 179.142 60.3065 159.44L60.3381 159.472Z" fill="white"/>
  </g>
</svg>